<?xml version="1.0" encoding="utf-8"?>
<!-- Generator: Adobe Illustrator 27.5.0, SVG Export Plug-In . SVG Version: 6.00 Build 0)  -->
<svg version="1.1" xmlns="http://www.w3.org/2000/svg" xmlns:xlink="http://www.w3.org/1999/xlink" x="0px" y="0px"
	 viewBox="0 0 750 500" style="enable-background:new 0 0 750 500;" xml:space="preserve">
<g id="BACKGROUND">
	<rect style="fill:#091B30;" width="750" height="500.802"/>
</g>
<g id="OBJECTS">
	<g>
		<path style="fill:#D86175;" d="M477.647,325.437c-2.87,0.319-5.835,0.706-8.303,2.204c-5.578,3.385-6.623,10.897-7.086,17.406
			c-0.128,1.806-0.18,3.842,1.061,5.159c1.152,1.223,3.01,1.382,4.689,1.452c19.063,0.802,38.179,0.35,57.183-1.353
			c3.967-0.356,8.016-0.789,11.624-2.476c14.099-6.595,5.322-25.251-7.626-25.728C512.492,321.485,494.253,323.594,477.647,325.437z
			"/>
		<path style="fill:#E49BB2;" d="M466.24,367.771c-4.092,0.704-8.246,1.477-11.937,3.379c-4.48,2.309-8.128,6.36-9.527,11.202
			c-1.399,4.841-0.377,10.416,2.982,14.173c4.838,5.41,12.94,6.092,20.198,6.184c22.98,0.292,45.969-1.552,68.673-5.113
			c5.381-0.844,10.806-1.801,15.803-3.968c2.442-1.059,4.812-2.441,6.514-4.487c3.727-4.48,3.467-11.001,2.438-16.737
			c-0.542-3.02-1.275-6.088-2.988-8.632c-4.182-6.209-12.391-3.997-18.771-3.743c-8.356,0.333-16.705,0.852-25.038,1.556
			C498.392,362.951,482.256,365.015,466.24,367.771z"/>
		<path style="fill:#D86175;" d="M532.987,417.632c3.691,1.105,7.651,2.656,9.497,6.039c0.973,1.784,1.223,3.862,1.405,5.886
			c0.328,3.644,0.238,7.911-2.644,10.166c-1.417,1.108-3.254,1.49-5.023,1.817c-18.016,3.329-36.461,4.33-54.731,2.973
			c-3.132-0.233-6.528-0.655-8.757-2.867c-2.198-2.181-2.667-5.51-3.018-8.586c-0.805-7.052-1.32-14.672,4.275-19.987
			c3.801-3.611,7.445-3.115,12.298-2.525C502.048,412.461,517.646,413.038,532.987,417.632z"/>
	</g>
	<g>
		<path style="fill:#E9B53E;" d="M623.139,335.606c-4.619,3.237-8.805,7.339-11.12,12.482c-2.315,5.144-2.516,11.445,0.432,16.254
			c2.711,4.424,7.566,7.001,12.247,9.241c14.842,7.1,30.297,12.918,46.136,17.368c7.625,2.142,16.162,3.882,23.161,0.174
			c6.963-3.689,10.441-12.059,10.372-19.939c-0.123-13.954-8.283-37.235-22.799-42.258
			C662.907,322.471,639.469,324.163,623.139,335.606z"/>
		<path style="fill:#7EC6C4;" d="M631.235,390.448c-9.129-3.9-18.148-8.664-28.021-9.7c-9.873-1.036-21.12,2.787-25.242,11.818
			c-1.374,3.01-1.857,6.354-1.98,9.661c-0.582,15.688,7.18,31.446,19.973,40.546c10.577,7.523,23.702,10.397,36.516,12.464
			c12.024,1.939,24.262,3.323,36.371,2.014c12.109-1.31,24.182-5.499,33.293-13.581c5.981-5.306,10.7-12.725,10.509-20.718
			c-0.169-7.083-4.877-14.286-11.187-17.53c-5.003-2.572-11.217-1.398-16.661-1.811
			C666.411,402.216,648.195,397.693,631.235,390.448z"/>
	</g>
	<g>
		<path style="fill:#D86175;" d="M116.76,45.871c0.75-3.072,1.692-6.239,3.846-8.554c2.154-2.315,5.867-3.477,8.564-1.827
			c2.518,1.54,3.28,4.8,3.662,7.727c1.457,11.184,0.66,22.657-2.328,33.533c8.856-9.374,21.127-15.449,33.951-16.808
			c2.012-0.213,4.234-0.257,5.833,0.982c1.691,1.31,2.165,3.759,1.651,5.835c-0.513,2.076-1.836,3.851-3.223,5.479
			c-5.063,5.944-11.419,10.781-18.497,14.076c7.824,0.72,15.687-0.535,23.544-0.603c7.857-0.069,16.175,1.251,22.203,6.292
			c1.712,1.432,3.31,3.629,2.558,5.731c-0.635,1.775-2.636,2.594-4.433,3.164c-9.9,3.139-20.227,4.93-30.606,5.308
			c13.464,1.261,26.493,6.821,36.719,15.669c2.22,1.921,4.494,4.514,3.971,7.402c-0.437,2.412-2.801,4.098-5.214,4.531
			s-4.881-0.122-7.269-0.674c-12.899-2.981-25.799-5.962-38.699-8.943c10.282,10.877,16.405,25.593,16.873,40.554
			c0.021,0.665,0.02,1.374-0.334,1.938c-0.413,0.66-1.215,0.966-1.982,1.099c-4.915,0.847-9.029-3.54-11.986-7.557
			c-5.916-8.035-11.424-16.369-16.498-24.96c-0.028,16.03-0.241,32.823-7.9,46.904c-1.25,2.298-3.657,4.822-6.036,3.734
			c-0.799-0.366-1.375-1.087-1.857-1.822c-2.8-4.28-3.314-9.614-3.675-14.715c-0.874-12.357-1.308-24.745-1.301-37.133
			c-10.599,14.817-21.776,30.151-37.876,38.675c-2.673,1.415-6.591,2.33-8.212-0.223c-0.763-1.203-0.646-2.749-0.419-4.155
			c2.583-15.955,15.282-28.066,27.266-38.911c-14.685,2.326-29.773,2.084-44.376-0.714c-2.561-0.491-5.68-1.688-5.818-4.292
			c-0.094-1.77,1.329-3.224,2.708-4.338c13.696-11.06,32.508-12.627,50.077-13.731c-14.575-2.197-28.304-9.64-38.098-20.655
			c-2.972-3.342-5.695-7.285-5.902-11.752c-0.041-0.886,0.046-1.846,0.622-2.521c0.699-0.819,1.889-0.97,2.964-1.029
			c15.732-0.854,31.677,6.672,41.017,19.36C90.45,79.47,82.479,65.857,80.863,51.417c-0.095-0.85-0.157-1.765,0.272-2.505
			c0.436-0.753,1.287-1.158,2.115-1.424c4.066-1.307,8.624-0.245,12.246,2.018c3.622,2.263,6.432,5.615,8.883,9.113
			c3.651,5.21,6.778,10.93,8.921,16.93C113.865,65.533,114.352,55.73,116.76,45.871z"/>
		<path style="fill:#F9EDDD;" d="M117.099,99.224c-3.37,2.293-5.831,5.888-6.748,9.86c-0.586,2.536-0.489,5.412,1.102,7.472
			c1.731,2.241,4.759,2.981,7.572,3.306c3.943,0.456,8.024,0.371,11.764-0.956c3.741-1.327,7.117-4.018,8.64-7.684
			c1.523-3.665,0.886-8.3-2.022-11.001C132.201,95.384,122.717,95.402,117.099,99.224z"/>
	</g>
	<g>
		<path style="fill:#E49BB2;" d="M262.881,162.828c3.534-0.327,5.82-3.901,4.592-7.231c-5.177-14.041-5.113-29.859-4.895-45.021
			c0.106-7.385,0.355-15.247,4.509-21.354c4.142-6.09,11.561-9.294,18.884-10.07c3.694-0.391,7.54-0.223,10.945,1.262
			c9.563,4.173,12.041,16.467,12.303,26.897c0.379,15.055-1.172,30.156-4.588,44.823c-1.147,4.924,2.575,9.613,7.632,9.591
			c5.025-0.022,10.05-0.324,15.042-0.904c3.348-0.389,6.186-2.66,7.35-5.824c6.375-17.321,12.111-35.375,9.687-53.549
			c-2.65-19.869-15.672-38.061-33.625-46.977c-17.953-8.916-40.317-8.296-57.749,1.601c-7.439,4.223-14.052,10.105-18.393,17.476
			c-5.509,9.354-7.086,20.57-6.708,31.419c0.581,16.681,5.049,34.418,11.639,49.749c2.126,4.947,3.679,7.87,9.126,9.157
			C250.474,164.307,257.272,163.347,262.881,162.828z"/>
		<path style="fill:#60A3D6;" d="M275.79,113.95c0.073-3.531,0.394-7.509,3.098-9.781c1.712-1.439,4.047-1.866,6.278-2.03
			c2.102-0.155,4.346-0.087,6.124,1.046c2.248,1.434,3.204,4.197,3.844,6.785c1.398,5.652,2.03,11.494,1.874,17.314
			c-0.126,4.693-0.759,9.355-1.393,14.007c-0.535,3.928-1.069,7.856-1.604,11.785c-0.119,0.877-0.25,1.785-0.728,2.529
			c-0.53,0.824-1.419,1.341-2.31,1.747c-10.084,4.599-14.119-0.305-14.62-9.573C275.744,136.516,275.555,125.229,275.79,113.95z"/>
	</g>
	<g>
		<path style="fill:#F9EDDD;" d="M333.313,436.212c7.077,8.915,17.502,15.107,28.717,17.057c14.357,2.496,29.571-2.041,40.89-11.219
			c11.319-9.178,18.787-22.704,21.573-37.007c0.975-5.006,1.104-10.952-2.7-14.348c-4.968-4.436-13.204-1.29-17.443,3.848
			c-4.238,5.138-6.296,11.806-10.574,16.911c2.724-9.09,2.759-19.581-2.632-27.39c-5.391-7.809-17.275-11.335-24.842-5.609
			c-5.439,4.116-7.27,11.488-7.495,18.306c-0.224,6.818,0.776,13.732-0.582,20.416c-1.323-8.587-2.903-17.438-7.714-24.673
			c-4.811-7.235-13.732-12.456-22.152-10.313c-1.955,0.498-3.921,1.464-4.956,3.197c-1.003,1.681-0.959,3.763-0.885,5.72
			C323.134,407.28,322.853,422.754,333.313,436.212z"/>
		<path style="fill:#60A3D6;" d="M304.577,332.513c-1.205,4.625-1.181,9.495-0.625,14.242c1.162,9.913,5.428,20.452,14.417,24.787
			c1.839,0.887,4.083,1.459,5.868,0.469c1.113-0.617,1.845-1.737,2.456-2.853c3.191-5.822,4.278-12.769,3.019-19.288
			c3.846,6.245,10.367,10.778,17.56,12.209c4.589,0.913,9.958,0.334,12.97-3.247c4.075-4.845,1.853-12.145-0.555-17.999
			c3.823,4.514,8.525,9.433,14.434,9.16c4.279-0.198,7.925-3.167,10.704-6.426c1.982-2.325,3.737-4.952,4.406-7.933
			c1.011-4.501-0.607-9.26-3.245-13.045c-5.394-7.741-14.713-12.012-24.049-13.37C341.892,306.303,310.791,308.66,304.577,332.513z"
			/>
		<path style="fill:#E9B53E;" d="M401.515,352.878c-2.493,1.654-4.44,4.039-5.902,6.65c-1.155,2.063-2.04,4.339-2.098,6.703
			c-0.109,4.436,2.873,8.625,6.865,10.565c3.991,1.939,8.784,1.815,12.956,0.302c4.572-1.658,8.701-5.209,9.903-9.922
			c0.646-2.531,0.421-5.197,0.08-7.788C421.761,347.553,410.266,347.072,401.515,352.878z"/>
	</g>
	<g>
		<g>
			<path style="fill:#E9B53E;" d="M392.146,275.159c5.387-4.502,7.417-12.189,9.554-20.559c1.918-7.513,3.196-15.785-0.161-22.775
				c-4.431-9.225-16.532-13.306-26.23-10.039c-4.868,1.64-9.027,4.822-12.203,8.857c-1.731,2.199-5.232,1.091-5.315-1.706
				c-0.136-4.569-0.817-9.059-2.507-13.309c-3.323-8.354-10.61-15.06-19.249-17.549c-8.639-2.489-18.439-0.657-25.515,4.889
				c-8.751,6.86-12.34,17.737-14.18,29.011c-0.494,3.024-4.69,3.396-5.709,0.506l-2.237-6.346c-2.633-7.47-5.926-15.691-13.122-19
				c-9.686-4.454-21.468,3.104-25.471,12.985c-3.232,7.978-2.829,16.78-1.693,25.42c0.315,2.398-2.244,4.123-4.363,2.957
				c-3.961-2.181-8.168-3.802-12.929-3.535c-3.613,0.202-7.051,1.91-9.143,4.863c-6.508,9.187,4.2,19.88,10.962,25.179
				c7.507,5.884,15.482,5.66,24.729,5.671c29.308,0.034,58.624-0.505,87.917-1.443c6.84-0.219,13.725,0.171,20.568,0.193
				c4.687,0.015,9.377-0.006,14.066-0.157C385.338,279.097,389.232,277.594,392.146,275.159z"/>
			<path style="fill:#D86175;" d="M309.375,252.525c-8.524,0.22-17.129-0.292-25.516,1.243c-3.065,0.561-6.264,1.502-8.334,3.832
				c-0.737,0.83-1.316,1.863-1.342,2.973c-0.071,3.116,3.767,4.605,6.853,5.051c9.792,1.416,19.734,1.268,29.626,1.117
				c10.414-0.159,20.933-0.331,31.048-2.812c3.937-0.966,8.487-3.428,6.902-8.115c-1.07-3.165-4.684-5.907-7.867-6.469
				c-3.814-0.673-8.178,0.795-11.916,1.388C322.392,251.752,315.891,252.357,309.375,252.525z"/>
			<g>
				<path style="fill:#D86175;" d="M217.692,225.044c1.159,4.255,5.457,7.593,9.844,7.147c1.951-0.198,3.788-1.074,5.362-2.243
					c2.621-1.948,4.595-4.752,5.546-7.876c0.413-1.358,0.632-2.841,0.169-4.183c-1.698-4.924-8.329-9.796-13.354-7.318
					C219.977,213.175,216.051,219.019,217.692,225.044z"/>
				<path style="fill:#D86175;" d="M287.841,179.099c-5.516,2.769-11.084,11.684-4.874,16.649c4.8,3.837,14.306,5.208,17.537-1.106
					c1.5-2.931,2.162-6.588,1.791-9.858c-0.272-2.399-1.395-4.824-3.458-6.079c-1.366-0.831-3.012-1.08-4.611-1.096
					C291.966,177.588,289.784,178.123,287.841,179.099z"/>
				<path style="fill:#D86175;" d="M367.351,194.714c-2.654,1.664-4.112,4.898-4.018,8.029c0.101,3.352,2.041,6.73,5.145,7.999
					c1.262,0.516,2.641,0.674,4.003,0.731c1.783,0.075,3.616-0.021,5.266-0.702c2.436-1.005,4.237-3.215,5.207-5.665
					c0.402-1.015,0.68-2.091,0.685-3.182C383.686,193.228,374.094,190.5,367.351,194.714z"/>
			</g>
		</g>
		<path style="fill:#D86175;" d="M309.375,252.525c-8.524,0.22-17.129-0.292-25.516,1.243c-3.065,0.561-6.264,1.502-8.334,3.832
			c-0.737,0.83-1.316,1.863-1.342,2.973c-0.071,3.116,3.767,4.605,6.853,5.051c9.792,1.416,19.734,1.268,29.626,1.117
			c10.414-0.159,20.933-0.331,31.048-2.812c3.937-0.966,8.487-3.428,6.902-8.115c-1.07-3.165-4.684-5.907-7.867-6.469
			c-3.814-0.673-8.178,0.795-11.916,1.388C322.392,251.752,315.891,252.357,309.375,252.525z"/>
	</g>
	<g>
		<g>
			<path style="fill:#7EC6C4;" d="M420.687,94.189c-0.184-6.726-0.83-13.637-3.877-19.636c-4.014-7.903-11.995-13.414-20.629-15.423
				c-4.193-0.975-8.767-1.152-12.645,0.717c-3.326,1.603-5.805,4.538-7.919,7.564c-10.311,14.764-14.131,33.896-10.28,51.488
				c1.884,8.608,5.652,17.002,11.965,23.149c10.043,9.779,31.801,13.232,39.459-1.589c2.516-4.87,1.98-11.055,2.337-16.353
				C419.773,114.096,420.963,104.256,420.687,94.189z"/>
			<path style="fill:#7EC6C4;" d="M413.508,83.892c-1.426,10.816-2.676,21.727-1.99,32.615c0.686,10.888,3.408,21.844,9.373,30.978
				c3.134,4.798,7.215,9.098,12.301,11.738c5.087,2.64,11.253,3.48,16.634,1.509c7.207-2.64,11.812-9.622,15.307-16.456
				c11.323-22.141,16.263-48.736,7.715-72.09c-3.867-10.563-10.901-20.562-21.221-25.037c-8.542-3.704-22.448-2.672-29.102,4.698
				C415.58,59.539,414.777,74.267,413.508,83.892z"/>
			<path style="fill:#7EC6C4;" d="M475.495,70.233c-3.401,5.928-4.81,12.796-5.47,19.599c-0.647,6.671-0.622,13.389-0.478,20.09
				c0.199,9.285,0.695,18.861,4.702,27.24c4.007,8.379,12.399,15.329,21.674,14.85c8.961-0.463,16.253-7.491,21.027-15.089
				c11.974-19.062,12.947-44.533,2.46-64.453c-2.701-5.13-6.241-10.031-11.226-12.991C497.005,52.839,481.496,59.773,475.495,70.233
				z"/>
			<path style="fill:#7EC6C4;" d="M520.433,79.898c-3.789,6.578-4.602,14.425-4.83,22.014c-0.326,10.849,0.509,22.188,5.956,31.576
				c2.528,4.355,6.069,8.212,10.521,10.566s9.857,3.093,14.616,1.446c4.6-1.592,8.266-5.254,10.727-9.453
				c2.461-4.199,3.84-8.935,5.018-13.658c2.989-11.983,4.803-24.774,1.107-36.559c-1.758-5.605-4.857-10.951-9.585-14.436
				C543.562,63.727,526.595,69.2,520.433,79.898z"/>
		</g>
		<path style="fill:#F9EDDD;" d="M398.044,92.134c-5.103,3.231-5.81,11.109-2.287,16.016c3.523,4.906,10.104,6.923,16.109,6.266
			c3.291-0.36,6.691-1.403,9.828-0.344c3.445,1.164,5.621,4.555,8.751,6.407c5.29,3.13,12.049,1.305,17.727-1.048
			c5.678-2.354,11.692-5.229,17.699-3.927c4.951,1.073,8.867,4.807,13.525,6.799c4.901,2.096,10.82,2.095,15.384-0.658
			c2.223-1.341,4.052-3.258,6.258-4.627c4.736-2.937,10.677-3.051,16.221-2.494c3.958,0.398,7.985,1.088,11.877,0.267
			c3.893-0.82,7.707-3.617,8.267-7.555c0.438-3.077-1.228-6.168-3.612-8.163c-2.383-1.995-5.395-3.065-8.387-3.906
			c-4.038-1.134-8.434-1.905-12.358-0.425c-3.83,1.444-7.4,4.986-11.336,3.862c-3.398-0.971-4.861-4.878-7.356-7.381
			c-3.376-3.387-8.69-4.077-13.407-3.287s-9.121,2.826-13.705,4.191c-4.583,1.366-9.67,2.023-14.045,0.091
			c-4.502-1.989-7.603-6.434-12.181-8.241c-5.117-2.02-10.931-0.315-15.905,2.035c-4.211,1.989-9.204,5.772-14.041,5.409
			C406.466,91.074,402.435,89.354,398.044,92.134z"/>
	</g>
	<g>
		<g>
			<path style="fill:#E49BB2;" d="M158.086,376.102c-2.299,7.297-2.798,15.042-2.705,22.692c0.126,10.32,1.554,21.265,8.052,29.283
				c5.991,7.392,15.73,11.222,25.245,11.142c9.515-0.079,18.762-3.767,26.561-9.218c11.504-8.041,20.095-19.758,31.767-27.553
				c11.495-7.677,26.228-11.857,33.573-23.567c18.653-29.736-20.433-53.367-46.223-50.825
				C205.258,330.924,167.587,345.949,158.086,376.102z"/>
			<path style="fill:#F9EDDD;" d="M209.186,361.005c-6.787,3.27-13.395,7.393-17.906,13.427c-4.511,6.034-6.6,14.295-3.798,21.289
				c2.046,5.106,7.507,9.324,12.836,7.959c6.696-1.715,8.858-10.324,14.498-14.32c6.755-4.786,16.285-1.725,24.16-4.279
				c8.92-2.892,14.202-13.919,10.864-22.682C242.346,342.722,221.275,355.182,209.186,361.005z"/>
		</g>
		<path style="fill:#D86175;" d="M246.273,422.995c-4.646,2.603-10.356,5.571-10.686,10.886c-0.206,3.31,1.966,6.376,4.659,8.313
			c4.606,3.313,10.549,4.01,16.212,4.346c10.028,0.595,21.25-0.072,28.271-7.257c2.237-2.289,3.873-5.095,5.282-7.968
			c1.406-2.866,2.616-5.853,3.231-8.985c1.115-5.678,0.119-11.868-3.271-16.558c-3.39-4.69-9.285-7.637-15.028-6.921
			c-6.625,0.825-9.409,5.834-12.776,10.788C258.346,415.263,252.136,419.71,246.273,422.995z"/>
	</g>
	<g>
		<g>
			<path style="fill:#D86175;" d="M688.092,133.812c4.059,0.107,8.516,0.449,11.421,3.286c1.806,1.763,2.729,4.286,2.953,6.799
				c0.569,6.372-2.957,12.346-6.706,17.53c-5.343,7.388-11.421,14.244-18.115,20.435c-2.642,2.443-5.509,4.854-8.985,5.783
				c-3.848,1.029-7.941,0.106-11.719-1.157c-13.212-4.418-24.951-13.124-33.016-24.483c-4.918-6.928-9.898-21.372,1.133-25.425
				c4.229-1.554,9.373-1.191,13.802-1.451c7.617-0.448,15.234-0.885,22.86-1.145C670.506,133.683,679.302,133.58,688.092,133.812z"
				/>
			<path style="fill:#D86175;" d="M690.11,180.155c1.996-0.046,4.089-0.072,5.863,0.844c2.665,1.377,3.938,4.633,3.771,7.628
				c-0.166,2.995-1.509,5.789-2.946,8.422c-3.963,7.263-8.93,14.114-15.463,19.191s-14.764,8.268-23.019,7.702
				c-13.938-0.954-25.173-12.163-31.871-24.424c-2.56-4.686-4.51-11.299,0.001-15.631c3.65-3.507,10.06-2.488,14.686-2.595
				C657.459,180.914,673.784,180.534,690.11,180.155z"/>
			<path style="fill:#D86175;" d="M687.092,218.277c1.537,0.038,3.114,0.117,4.521,0.734c1.852,0.811,3.214,2.479,4.106,4.294
				c3.519,7.158,0.349,15.754-3.676,22.64c-2.799,4.789-6.012,9.335-9.593,13.57c-1.935,2.289-4.02,4.523-6.622,6.01
				c-5.971,3.413-13.558,2.279-19.903-0.375c-12.526-5.24-23.056-16.499-26.771-29.662c-1.497-5.302-2.064-12.439,4.452-14.026
				c7.386-1.799,16.381-0.72,24.012-1.421C667.42,219.14,677.235,218.035,687.092,218.277z"/>
			<path style="fill:#D86175;" d="M687.811,257.168c5.047-0.414,10.954-0.463,14.149,3.466c1.821,2.24,2.276,5.36,1.794,8.207
				c-0.483,2.846-1.805,5.477-3.235,7.985c-3.298,5.783-7.265,11.185-11.798,16.061c-5.709,6.142-13.256,11.763-21.612,11.064
				c-2.384-0.199-4.694-0.912-6.947-1.717c-6.551-2.339-12.809-5.495-18.586-9.37c-4.978-3.34-9.767-7.436-12.092-12.962
				c-2.073-4.926-1.61-10.819,1.759-15.052c3.233-4.062,10.131-3.252,14.966-3.766C660.06,259.613,673.929,258.308,687.811,257.168z
				"/>
		</g>
		<g>
			<path style="fill:#F9EDDD;" d="M641.611,76.855c0.448-6.533,1.459-13.071,3.624-19.27c2.728-7.814,10.013-24.191,14.45-7.925
				c2.113,7.746,2.516,16.336,2.315,24.323c10.227-10.01,23.585-16.775,37.707-19.094c1.258-0.207,2.739-0.308,3.612,0.622
				c4.583,4.885-16.151,20.511-19.545,22.811c12.214,0.283,24.895,1.696,35.286,8.12c0.601,0.372,1.259,0.87,1.281,1.576
				c0.018,0.589-0.42,1.083-0.853,1.483c-4.007,3.7-9.66,5.017-15.094,5.478c-5.434,0.461-10.959,0.213-16.279,1.407
				c7.28,2.711,13.957,7.026,19.419,12.549c2.692,2.722,5.221,6.089,5.14,9.916c-3.921,1.874-8.549,0.649-12.71-0.604
				c-7.993-2.405-15.986-4.811-23.979-7.217c2.397,5.14,4.819,10.358,5.76,15.951c0.941,5.593,0.233,11.704-3.164,16.245
				c-0.471,0.63-1.039,1.256-1.8,1.455c-1.549,0.405-2.891-1.079-3.786-2.406c-5.003-7.41-9.339-15.27-12.94-23.454
				c-2.225,7.611-4.461,15.25-7.704,22.486c-1.802,4.021-4.659,8.416-9.057,8.679c-0.987,0.059-2.03-0.129-2.803-0.745
				c-1.191-0.949-1.458-2.624-1.619-4.138c-1.128-10.589-1.292-21.28-0.49-31.899c-8.339,5.474-16.679,10.947-25.018,16.421
				c-2.2,1.444-4.486,2.922-7.083,3.346c-2.597,0.424-5.609-0.502-6.813-2.842c-1.685-3.274,0.84-7.099,3.436-9.711
				c8.521-8.571,19.215-14.587,29.76-20.491c-7.328-1.436-14.659-2.872-21.931-4.568c-6.11-1.424-12.389-3.135-17.238-7.115
				c-2.357-1.934-4.266-5.733-1.997-7.769c0.503-0.452,1.141-0.721,1.773-0.96c13.202-5,27.944-0.287,40.99,5.107
				c-6.149-7.293-11.737-15.059-16.697-23.208c-1.297-2.131-2.586-4.4-2.703-6.892c-0.046-0.981,0.108-2.007,0.656-2.822
				c0.781-1.163,2.227-1.708,3.62-1.863c5.054-0.562,9.596,3.035,12.957,6.851c4.416,5.014,7.946,10.807,10.377,17.032"/>
			<path style="fill:#60A3D6;" d="M663.589,85.617c1.169-0.143,2.406-0.269,3.479,0.214c1.78,0.801,2.472,2.943,2.789,4.869
				c0.412,2.506,0.518,5.063,0.316,7.595c-0.045,0.56-0.111,1.138-0.397,1.622c-0.481,0.813-1.457,1.166-2.36,1.444
				c-6.449,1.987-13.138,3.194-19.875,3.586c-1.128,0.066-2.31,0.099-3.331-0.386c-1.706-0.81-2.469-2.799-2.896-4.639
				c-0.51-2.201-0.767-4.46-0.763-6.719c0.001-0.82,0.043-1.667,0.396-2.408c1.34-2.807,5.837-2.646,8.46-3.052
				C654.135,87.014,658.838,86.199,663.589,85.617z"/>
		</g>
	</g>
	<g>
		<path style="fill:#60A3D6;" d="M108.131,203.295c-6.859-0.222-13.934-0.41-20.337,2.06c-7.459,2.877-13.175,9.073-17.554,15.763
			c-8.265,12.628-12.614,27.387-16.019,42.09c-7.324,31.625-10.777,64.054-12.057,96.491c-0.978,24.785-0.61,50.147,7.506,73.586
			c1.517,4.38,3.443,8.868,7.078,11.744c2.731,2.161,6.196,3.204,9.646,3.68c13.579,1.874,27.963-5.16,34.822-17.027
			c5.336-9.232,6.14-20.599,3.913-31.028c-2.227-10.428-7.267-20.052-13.036-29.02c-4.025-6.256-8.47-12.341-11.148-19.281
			c-2.678-6.94-3.389-15.061,0.085-21.639c3.474-6.578,11.958-10.717,18.752-7.685c7.531,3.361,9.826,13.122,16.285,18.25
			c6.792,5.392,17.499,4.197,23.783-1.779c6.285-5.975,8.207-15.702,5.872-24.054c-2.334-8.352-8.447-15.314-15.78-19.944
			c-6.877-4.341-14.854-6.85-21.347-11.746c-6.493-4.896-11.377-13.521-8.386-21.083c2.734-6.913,10.735-10.055,18.065-11.296
			c7.046-1.193,14.936-1.134,20.535,3.306c5.042,3.998,7.066,10.574,9.465,16.545c2.399,5.971,6.113,12.273,12.34,13.895
			c5.615,1.462,11.58-1.504,15.557-5.729c8.269-8.785,9.734-21.901,9.481-33.963c-0.263-12.546-2.716-35.238-17.035-39.853
			c-7.97-2.569-19.04-0.938-27.348-1.207C130.222,204.011,119.177,203.653,108.131,203.295z"/>
		<g>
			<g>
				<path style="fill:#E49BB2;" d="M36.941,261.192c-2.573,3.622-4.307,7.946-4.314,12.39c-0.009,6.259,3.504,12.238,8.535,15.962
					c5.031,3.725,11.415,5.341,17.674,5.324c7.826-0.02,15.78-2.615,21.522-7.933c5.741-5.318,8.988-13.483,7.596-21.184
					C83.825,242.91,47.859,245.823,36.941,261.192z"/>
				<path style="fill:#F9EDDD;" d="M88.015,369.854c-7.907,5.013-13.042,15.172-10.027,24.035c1.663,4.888,5.492,8.775,9.774,11.661
					c8.894,5.994,20.578,8.197,30.669,4.562c10.091-3.635,17.965-13.542,17.987-24.268
					C136.468,360.965,103.934,359.761,88.015,369.854z"/>
			</g>
			<path style="fill:#7EC6C4;" d="M147.702,195.878c-6.698,3.293-11.897,10.382-11.226,17.815c0.464,5.141,3.617,9.767,7.68,12.951
				c4.062,3.184,8.977,5.088,13.923,6.564c8.539,2.548,17.839,3.924,26.283,1.078c8.445-2.846,15.619-10.899,15.024-19.791
				c-0.471-7.028-5.621-13.102-11.851-16.389C176.851,192.467,158.741,190.452,147.702,195.878z"/>
		</g>
	</g>
	<g>
		<g>
			<g>
				<path style="fill:#60A3D6;" d="M476.127,239.593c-7.632,2.551-15.211,5.605-21.662,10.415
					c-6.45,4.81-11.733,11.572-13.413,19.442c-0.683,3.199-0.718,6.705,0.881,9.558c0.987,1.761,2.527,3.148,4.15,4.349
					c4.093,3.026,8.842,5.047,13.666,6.671c24.564,8.267,52.353,6.468,75.646-4.898c5.492-2.68,10.846-5.957,14.728-10.677
					c7.054-8.577,8.054-21.632,2.389-31.183c-6.16-10.386-18.537-14.929-30.039-13.097
					C506.698,232.684,491.388,234.491,476.127,239.593z"/>
				<path style="fill:#60A3D6;" d="M500.5,195.777c-6.804,3.895-13.427,8.694-17.299,15.511c-3.872,6.817-4.347,16.053,0.634,22.107
					c3.333,4.051,8.469,6.099,13.447,7.751c14.048,4.663,28.713,7.464,43.491,8.309c11.977,0.685,24.831-0.181,34.491-7.294
					c11.607-8.546,15.74-25.693,9.611-38.74c-6.164-13.12-21.275-17.631-34.496-19.7C532.654,180.948,515.671,187.091,500.5,195.777
					z"/>
			</g>
		</g>
		<path style="fill:#7EC6C4;" d="M580.008,254.492c-4.721,0.146-9.366,2.077-12.798,5.321c-3.433,3.244-5.623,7.773-6.035,12.478
			c-0.281,3.207,0.279,6.56,2.03,9.261c2.852,4.398,8.301,6.36,13.492,7.081c6.524,0.907,13.522,0.21,19.039-3.39
			c5.517-3.599,9.126-10.529,7.534-16.921c-0.479-1.921-1.385-3.715-2.472-5.37c-2.565-3.906-6.258-7.157-10.659-8.728
			s-9.519-1.335-13.526,1.072"/>
		<path style="fill:#E49BB2;" d="M434.457,198.23c-4.798,2.17-9.013,5.909-11.069,10.757c-1.244,2.933-1.669,6.154-1.733,9.339
			c-0.085,4.18,0.466,8.486,2.494,12.141c2.992,5.394,8.952,8.724,15.06,9.587c6.108,0.863,12.347-0.484,18.111-2.681
			c7.087-2.701,14.174-7.298,16.524-14.509c0.831-2.55,1.009-5.288,0.711-7.953c-0.668-5.97-3.788-11.629-8.48-15.38
			C457.456,192.641,444.041,193.896,434.457,198.23z"/>
	</g>
	<g>
		<path style="fill:#F9EDDD;" d="M144.441,325.467c-0.439,0-0.875-0.028-1.304-0.086c-3.938-0.521-9.002-3.477-10.753-14.586
			c-1.131-7.178-1.87-14.699,2.509-20.835c0.708-0.992,1.506-1.874,2.371-2.662c-1.087-0.368-2.166-0.618-3.224-0.742
			c-4.062-0.48-8.277,0.989-11.857,4.133c-4.509,3.959-7.356,9.975-7.429,15.699l-7.999-0.102
			c0.103-8.041,3.897-16.119,10.149-21.609c5.305-4.658,11.72-6.812,18.069-6.066c3.557,0.418,7.181,1.734,10.646,3.85
			c0.894-0.342,1.785-0.65,2.657-0.936c9.532-3.127,17.332-4.12,24.547-3.129c4.649,0.64,8.965,2.189,12.645,4.453
			c5.704-2.409,12.114-3.117,18.229-1.829c9.776,2.054,18.199,9.074,21.98,18.322l-7.405,3.027
			c-2.748-6.721-9.114-12.028-16.22-13.521c-3.126-0.657-6.419-0.582-9.57,0.141c0.828,1.038,1.568,2.136,2.208,3.286
			c3.302,5.939,3.589,12.937,0.749,18.264c-3.463,6.495-11.454,9.613-17.813,6.954c-5.373-2.248-8.849-8.245-8.453-14.584
			c0.307-4.919,2.803-9.878,7.028-13.963c0.415-0.401,0.84-0.788,1.276-1.163c-1.792-0.688-3.722-1.184-5.745-1.462
			c-5.443-0.751-11.464-0.073-18.807,2.127c4.153,4.495,6.786,9.851,7.407,15.251c0.993,8.631-3.345,17.045-10.548,20.462
			C147.954,325.029,146.162,325.467,144.441,325.467z M144.757,291.683c-1.343,0.799-2.517,1.753-3.352,2.925
			c-2.626,3.679-1.992,9.398-1.119,14.941c0.744,4.723,2.204,7.677,3.904,7.902c0.542,0.067,1.311-0.112,2.168-0.519
			c4.025-1.909,6.617-7.205,6.029-12.319C151.858,300.016,149.095,295.352,144.757,291.683z M184.725,292.315
			c-1.058,0.707-2.051,1.503-2.962,2.384c-2.787,2.694-4.422,5.787-4.604,8.709c-0.181,2.898,1.348,5.781,3.556,6.705
			c2.518,1.054,6.173-0.536,7.667-3.337c1.552-2.911,1.284-7.076-0.682-10.611C186.92,294.763,185.916,293.472,184.725,292.315z"/>
	</g>
	<g>
		<path style="fill:#E9B53E;" d="M572.71,177.188c-3.175,0-5.843-0.864-7.973-2.589c-1.767-1.431-3.145-3.51-3.983-6.012
			c-2.204-6.579-0.222-14.394,5.05-19.91c1.54-1.612,3.229-2.931,4.975-4.009c-2.665-1.071-5.549-1.71-8.499-1.833
			c-5.477-0.232-11.222,1.27-16.364,4.205c2.06,1.362,3.791,2.963,5.181,4.796c4.295,5.661,5.147,15.154-0.964,20.621
			c-4.671,4.176-12.104,4.397-17.291,0.52c-4.699-3.512-6.974-9.897-5.66-15.89c0.538-2.456,1.644-4.844,3.303-7.146
			c-4.369-0.682-8.843-0.737-13.231-0.169c0.021,0.034,0.043,0.069,0.063,0.104c2.743,4.563,2.775,9.843,2.56,13.419
			c-0.171,2.844-0.708,6.447-3.366,9.075c-1.625,1.608-3.613,2.391-5.164,2.893c-5.929,1.916-11.572,1.351-15.493-1.552
			c-6.458-4.78-6.504-14.413-2.495-20.41c0.928-1.389,2.045-2.663,3.349-3.82c-1.923,0.314-4.028,0.874-6.384,1.691
			c-2.663,0.924-5.626,2.153-7.399,4.264c-3.016,3.588-2.603,9.528-1.921,15.305l-7.945,0.938
			c-0.848-7.186-1.328-15.357,3.741-21.39c3.042-3.619,7.425-5.468,10.903-6.675c3.699-1.283,9.296-2.915,15.167-2.299
			c2.382,0.251,4.645,0.876,6.688,1.815c8.058-2.094,16.623-2.307,24.778-0.618c1.002,0.208,1.97,0.442,2.902,0.703
			c7.488-5.706,16.61-8.751,25.379-8.374c6.437,0.27,12.662,2.435,17.751,5.993c1.079-0.247,2.11-0.433,3.066-0.571
			c6.753-0.979,12.549,0.118,16.77,3.17c3.314,2.398,5.865,6.175,7.375,10.924c1.672,5.258,1.921,10.883,0.721,16.266l-7.809-1.741
			c0.894-4.004,0.708-8.189-0.536-12.101c-0.688-2.165-2.017-5.114-4.44-6.866c-2.26-1.635-5.209-2.063-7.913-1.996
			c0.179,0.249,0.353,0.501,0.522,0.754c2.468,3.688,3.838,7.643,3.962,11.438c0.154,4.732-1.698,9.274-4.956,12.15
			c-2.517,2.221-5.627,3.285-8.055,3.963C576.769,176.867,574.645,177.188,572.71,177.188z M578.607,149.699
			c-2.472,0.943-4.974,2.365-7.02,4.505c-3.195,3.343-4.5,8.102-3.247,11.841c0.353,1.056,0.85,1.865,1.433,2.337
			c1.618,1.31,4.781,0.797,7.149,0.136c1.704-0.477,3.622-1.117,4.912-2.255c1.467-1.295,2.331-3.552,2.254-5.891
			c-0.075-2.3-0.979-4.807-2.614-7.251C580.649,151.889,579.685,150.744,578.607,149.699z M508.513,151.811
			c-3.976,1.438-6.829,3.427-8.504,5.934c-1.919,2.87-2.067,7.558,0.604,9.535c1.792,1.328,4.886,1.466,8.27,0.371
			c0.652-0.211,1.569-0.542,2.002-0.969c0.823-0.813,0.961-3.112,1.006-3.868c0.24-3.992-0.215-6.794-1.431-8.816
			C509.972,153.187,509.31,152.45,508.513,151.811z M538.947,152.306c-2.157,2.177-3.483,4.354-3.952,6.493
			c-0.633,2.888,0.476,6.155,2.635,7.769c2.09,1.563,5.374,1.528,7.169-0.076c2.515-2.249,2.034-7.041-0.076-9.822
			C543.386,154.908,541.453,153.449,538.947,152.306z"/>
	</g>
	<g>
		<path style="fill:#7EC6C4;" d="M425.714,332.839c-6.957,0-14.469-1.172-20.806-5.28c-6.182,1.256-12.564,1.436-18.846,0.502
			c-3.475-0.516-8.471-1.655-11.724-5.577c-2.702-3.258-3.696-8.014-2.727-13.048c1.542-8.014,7.503-14.972,15.185-17.727
			l2.701,7.529c-4.996,1.793-9.027,6.499-10.03,11.71c-0.508,2.637-0.123,5.04,1.028,6.429c1.144,1.378,3.285,2.259,6.742,2.771
			c3.461,0.515,6.96,0.634,10.421,0.363c-1.849-2.787-2.964-5.863-3.227-9.009c-0.502-5.988,2.41-11.892,7.245-14.689
			c4.038-2.335,9.36-2.607,14.992-0.76c1.852,0.607,4.207,1.571,5.976,3.648c2.798,3.285,2.65,7.717,2.571,10.098
			c-0.065,1.897-0.153,4.491-1.272,6.97c-1.61,3.568-4.742,5.697-7.553,7.06c5.023,1.221,11.26,1.308,18.959,0.31
			c2.216-0.287,4.525-0.646,6.797-1.171c-0.253-0.242-0.501-0.489-0.742-0.741c-6.028-6.291-8.039-17.731-1.422-24.732
			c2.814-2.98,6.945-4.629,11.374-4.493c4.413,0.124,8.46,1.994,11.103,5.13c6.119,7.261,3.677,18.221-2.482,24.531
			c1.261,0.222,2.59,0.393,3.985,0.513c7.023,0.607,13.599-0.028,19.543-1.885c0.986-0.308,1.982-0.66,2.59-1.153
			c0.691-0.562,1.261-1.61,1.692-3.121c1.138-3.978,0.667-8.352-1.292-11.999l7.049-3.785c2.935,5.466,3.641,12.021,1.935,17.983
			c-0.892,3.119-2.353,5.52-4.344,7.135c-1.655,1.343-3.5,2.032-5.246,2.577c-6.942,2.167-14.549,2.913-22.614,2.219
			c-4.581-0.396-8.647-1.28-12.175-2.646c-4.775,2.022-9.951,2.953-14.722,3.572C433.184,332.486,429.532,332.839,425.714,332.839z
			 M450.897,300.993c-2.019,0-3.91,0.736-5.098,1.994c-3.34,3.533-2.023,10.148,1.383,13.704c1.064,1.11,2.327,2.084,3.787,2.921
			c0.982-0.594,1.904-1.265,2.752-2.026c3.941-3.543,5.9-10.411,2.623-14.3c-1.158-1.374-3.107-2.23-5.213-2.29
			C451.054,300.994,450.976,300.993,450.897,300.993z M409.484,302.83c-1.307,0-2.642,0.236-3.8,0.906
			c-2.177,1.26-3.525,4.178-3.28,7.098c0.235,2.808,1.807,5.726,4.328,8.054c1.548-0.439,3.076-0.96,4.577-1.561
			c3.004-1.203,4.701-2.426,5.344-3.849c0.434-0.963,0.512-2.301,0.567-3.95c0.044-1.295,0.124-3.713-0.665-4.64
			c-0.537-0.63-1.924-1.085-2.379-1.234C413.023,303.276,411.281,302.83,409.484,302.83z"/>
	</g>
	<g>
		<path style="fill:#E9B53E;" d="M178.587,66.232c-0.381,0-0.763-0.004-1.144-0.012c-4.058-0.083-7.428-0.627-10.336-1.687
			c-5.343,1.341-10.991,1.438-16.38,0.238c-2.077-0.462-5.129-1.327-7.642-3.485c-4.369-3.753-6.553-11.771-1.996-19.236
			c3.287-5.384,8.715-8.546,13.592-10.929l3.513,7.188c-3.839,1.876-8.062,4.283-10.276,7.91c-1.677,2.747-1.924,7.019,0.381,8.999
			c0.876,0.752,2.2,1.307,4.167,1.745c1.83,0.407,3.699,0.621,5.57,0.646c-1.65-2.497-2.546-5.354-2.46-8.19
			c0.086-2.829,1.096-5.676,2.921-8.233c3.221-4.514,8.441-7.171,13.598-6.947c5.921,0.263,11.162,4.446,12.462,9.947
			c0.113,0.48,0.197,0.957,0.253,1.429c0.044-2.439,0.665-4.744,1.814-6.703c1.29-2.197,3.291-4.037,5.788-5.321
			c4.895-2.52,10.954-2.336,15.435,0.466c4.907,3.068,7.53,9.042,6.38,14.526c-0.69,3.287-2.533,6.179-5.502,8.646
			c1.31,0.041,2.693,0.004,4.162-0.103c4.239-0.306,7.234-1.119,9.425-2.557c2.314-1.519,3.74-4.045,3.468-6.146
			c-0.237-1.829-1.604-3.678-3.365-5.904l6.274-4.963c1.892,2.392,4.483,5.668,5.024,9.839c0.671,5.185-2.081,10.625-7.012,13.862
			c-4.437,2.912-9.68,3.591-13.238,3.848c-6.295,0.454-11.548-0.214-15.988-2.043C191.417,65.148,184.982,66.232,178.587,66.232z
			 M184.889,47.47c-0.136,4.147-2.365,7.875-5.459,10.755c3.262-0.056,6.529-0.438,9.727-1.13
			C186.773,54.28,185.248,50.923,184.889,47.47z M171.476,42.226c-2.374,0-4.887,1.393-6.466,3.608
			c-0.89,1.247-1.4,2.606-1.438,3.83c-0.07,2.299,1.586,4.845,4.125,6.345c0.66-0.235,1.311-0.497,1.951-0.783
			c4.076-1.823,7.958-5.667,7.123-9.2c-0.47-1.99-2.726-3.692-5.03-3.794C171.652,42.228,171.564,42.226,171.476,42.226z
			 M199.802,39.814c-1.273,0-2.575,0.296-3.731,0.891c-1.13,0.581-2.035,1.382-2.547,2.256c-0.49,0.834-0.743,1.942-0.714,3.117
			c0.077,3.037,2.093,6.197,5.151,8.239c0.156-0.066,0.312-0.132,0.466-0.2c3.244-1.409,7.26-3.797,7.969-7.177
			c0.46-2.194-0.74-4.817-2.792-6.1C202.513,40.158,201.173,39.814,199.802,39.814z"/>
	</g>
	<g>
		<path style="fill:#F9EDDD;" d="M555.446,454.776c-0.381,0-0.763-0.004-1.144-0.012c-4.058-0.082-7.428-0.626-10.336-1.686
			c-5.343,1.341-10.991,1.438-16.38,0.238c-2.077-0.462-5.129-1.327-7.642-3.485c-4.369-3.753-6.553-11.771-1.996-19.236
			c3.287-5.384,8.715-8.546,13.592-10.929l3.513,7.188c-3.839,1.876-8.062,4.283-10.276,7.91c-1.677,2.747-1.924,7.019,0.381,8.999
			c0.876,0.752,2.2,1.307,4.167,1.745c1.83,0.407,3.699,0.621,5.57,0.646c-1.65-2.497-2.546-5.354-2.46-8.19
			c0.086-2.829,1.096-5.676,2.921-8.233c3.221-4.514,8.441-7.171,13.598-6.947c5.921,0.263,11.162,4.446,12.462,9.947
			c0.113,0.48,0.197,0.957,0.253,1.429c0.043-2.439,0.665-4.744,1.814-6.703c1.29-2.197,3.291-4.037,5.788-5.321
			c4.895-2.52,10.954-2.336,15.435,0.466c4.907,3.068,7.53,9.042,6.38,14.526c-0.69,3.287-2.533,6.179-5.501,8.647
			c1.31,0.041,2.693,0.004,4.162-0.103c4.239-0.306,7.234-1.119,9.425-2.557c2.314-1.519,3.74-4.045,3.468-6.146
			c-0.237-1.829-1.604-3.678-3.365-5.904l6.274-4.963c1.892,2.392,4.483,5.668,5.024,9.839c0.671,5.185-2.081,10.625-7.012,13.862
			c-4.437,2.912-9.68,3.591-13.238,3.848c-6.295,0.454-11.548-0.214-15.988-2.043C568.276,453.692,561.84,454.776,555.446,454.776z
			 M561.748,436.013c-0.136,4.147-2.365,7.875-5.459,10.755c3.262-0.056,6.529-0.438,9.727-1.13
			C563.631,442.824,562.107,439.467,561.748,436.013z M548.335,430.769c-2.375,0-4.887,1.394-6.466,3.608
			c-0.89,1.247-1.4,2.606-1.438,3.83c-0.07,2.299,1.586,4.845,4.125,6.345c0.66-0.235,1.31-0.497,1.951-0.783
			c4.076-1.823,7.958-5.667,7.123-9.2c-0.47-1.99-2.727-3.692-5.03-3.794C548.511,430.771,548.423,430.769,548.335,430.769z
			 M576.661,428.358c-1.273,0-2.575,0.296-3.731,0.891c-1.13,0.581-2.035,1.382-2.547,2.256c-0.49,0.834-0.743,1.942-0.714,3.117
			c0.077,3.037,2.093,6.197,5.151,8.239c0.156-0.066,0.312-0.132,0.466-0.2c3.244-1.409,7.26-3.797,7.969-7.177
			c0.46-2.194-0.74-4.817-2.792-6.1C579.372,428.701,578.032,428.358,576.661,428.358z"/>
	</g>
</g>
</svg>
